<mxfile host="app.diagrams.net" agent="Mozilla/5.0 (Windows NT 10.0; Win64; x64) AppleWebKit/537.36 (KHTML, like Gecko) Chrome/139.0.0.0 Safari/537.36 Edg/139.0.0.0" version="28.0.9">
  <diagram name="Trang-1" id="vNifsrmQamGOLkUjOdwq">
    <mxGraphModel dx="778" dy="1637" grid="1" gridSize="10" guides="1" tooltips="1" connect="1" arrows="1" fold="1" page="1" pageScale="1" pageWidth="827" pageHeight="1169" math="0" shadow="0">
      <root>
        <mxCell id="0" />
        <mxCell id="1" parent="0" />
        <mxCell id="87PJ7_mTIpQ2_RzItXcB-1" value="Actor" style="shape=umlActor;verticalLabelPosition=bottom;verticalAlign=top;html=1;outlineConnect=0;" vertex="1" parent="1">
          <mxGeometry x="20" y="210" width="30" height="60" as="geometry" />
        </mxCell>
        <mxCell id="87PJ7_mTIpQ2_RzItXcB-2" value="" style="endArrow=classic;html=1;rounded=0;" edge="1" parent="1">
          <mxGeometry width="50" height="50" relative="1" as="geometry">
            <mxPoint x="60" y="240" as="sourcePoint" />
            <mxPoint x="120" y="240" as="targetPoint" />
          </mxGeometry>
        </mxCell>
        <mxCell id="87PJ7_mTIpQ2_RzItXcB-3" value="action" style="text;html=1;align=center;verticalAlign=middle;resizable=0;points=[];autosize=1;strokeColor=none;fillColor=none;" vertex="1" parent="1">
          <mxGeometry x="60" y="211" width="60" height="30" as="geometry" />
        </mxCell>
        <mxCell id="87PJ7_mTIpQ2_RzItXcB-4" value="REST API" style="text;html=1;align=center;verticalAlign=middle;resizable=0;points=[];autosize=1;strokeColor=none;fillColor=none;" vertex="1" parent="1">
          <mxGeometry x="160" y="118" width="80" height="30" as="geometry" />
        </mxCell>
        <mxCell id="87PJ7_mTIpQ2_RzItXcB-5" value="Client&amp;nbsp;&lt;div&gt;Web App&lt;/div&gt;" style="rounded=0;whiteSpace=wrap;html=1;" vertex="1" parent="1">
          <mxGeometry x="130" y="210" width="120" height="60" as="geometry" />
        </mxCell>
        <mxCell id="87PJ7_mTIpQ2_RzItXcB-6" value="" style="endArrow=classic;html=1;rounded=0;exitX=1;exitY=0.5;exitDx=0;exitDy=0;" edge="1" parent="1" source="87PJ7_mTIpQ2_RzItXcB-5" target="87PJ7_mTIpQ2_RzItXcB-7">
          <mxGeometry width="50" height="50" relative="1" as="geometry">
            <mxPoint x="380" y="270" as="sourcePoint" />
            <mxPoint x="320" y="240" as="targetPoint" />
          </mxGeometry>
        </mxCell>
        <mxCell id="87PJ7_mTIpQ2_RzItXcB-18" style="edgeStyle=orthogonalEdgeStyle;rounded=0;orthogonalLoop=1;jettySize=auto;html=1;exitX=0;exitY=0.75;exitDx=0;exitDy=0;entryX=1;entryY=0.75;entryDx=0;entryDy=0;dashed=1;" edge="1" parent="1" source="87PJ7_mTIpQ2_RzItXcB-7" target="87PJ7_mTIpQ2_RzItXcB-5">
          <mxGeometry relative="1" as="geometry" />
        </mxCell>
        <mxCell id="87PJ7_mTIpQ2_RzItXcB-7" value="Server&amp;nbsp;&lt;div&gt;Web API&lt;/div&gt;" style="rounded=0;whiteSpace=wrap;html=1;" vertex="1" parent="1">
          <mxGeometry x="330" y="210" width="120" height="60" as="geometry" />
        </mxCell>
        <mxCell id="87PJ7_mTIpQ2_RzItXcB-8" value="http protocol" style="text;html=1;align=center;verticalAlign=middle;whiteSpace=wrap;rounded=0;" vertex="1" parent="1">
          <mxGeometry x="250" y="210" width="80" height="30" as="geometry" />
        </mxCell>
        <mxCell id="87PJ7_mTIpQ2_RzItXcB-9" value="Request" style="text;html=1;align=center;verticalAlign=middle;whiteSpace=wrap;rounded=0;" vertex="1" parent="1">
          <mxGeometry x="60" y="248" width="60" height="30" as="geometry" />
        </mxCell>
        <mxCell id="87PJ7_mTIpQ2_RzItXcB-10" value="Response" style="text;html=1;align=center;verticalAlign=middle;whiteSpace=wrap;rounded=0;" vertex="1" parent="1">
          <mxGeometry x="260" y="255" width="60" height="30" as="geometry" />
        </mxCell>
        <mxCell id="87PJ7_mTIpQ2_RzItXcB-13" value="" style="endArrow=classic;startArrow=classic;html=1;rounded=0;exitX=0.75;exitY=1;exitDx=0;exitDy=0;" edge="1" parent="1" source="87PJ7_mTIpQ2_RzItXcB-7" target="87PJ7_mTIpQ2_RzItXcB-14">
          <mxGeometry width="50" height="50" relative="1" as="geometry">
            <mxPoint x="430" y="380" as="sourcePoint" />
            <mxPoint x="430" y="270" as="targetPoint" />
          </mxGeometry>
        </mxCell>
        <mxCell id="87PJ7_mTIpQ2_RzItXcB-14" value="" style="shape=cylinder3;whiteSpace=wrap;html=1;boundedLbl=1;backgroundOutline=1;size=15;" vertex="1" parent="1">
          <mxGeometry x="390" y="370" width="60" height="80" as="geometry" />
        </mxCell>
        <mxCell id="87PJ7_mTIpQ2_RzItXcB-19" value="Web Client" style="rounded=0;whiteSpace=wrap;html=1;" vertex="1" parent="1">
          <mxGeometry x="260" y="490" width="120" height="60" as="geometry" />
        </mxCell>
        <mxCell id="87PJ7_mTIpQ2_RzItXcB-20" value="Actor" style="shape=umlActor;verticalLabelPosition=bottom;verticalAlign=top;html=1;outlineConnect=0;" vertex="1" parent="1">
          <mxGeometry x="120" y="480" width="30" height="60" as="geometry" />
        </mxCell>
        <mxCell id="87PJ7_mTIpQ2_RzItXcB-21" value="Web Server&lt;div&gt;(API)&lt;/div&gt;" style="rounded=0;whiteSpace=wrap;html=1;" vertex="1" parent="1">
          <mxGeometry x="440" y="490" width="120" height="60" as="geometry" />
        </mxCell>
        <mxCell id="87PJ7_mTIpQ2_RzItXcB-23" value="" style="endArrow=none;html=1;rounded=0;" edge="1" parent="1">
          <mxGeometry width="50" height="50" relative="1" as="geometry">
            <mxPoint x="140" y="1110" as="sourcePoint" />
            <mxPoint x="140" y="560" as="targetPoint" />
          </mxGeometry>
        </mxCell>
        <mxCell id="87PJ7_mTIpQ2_RzItXcB-24" value="" style="endArrow=none;html=1;rounded=0;" edge="1" parent="1">
          <mxGeometry width="50" height="50" relative="1" as="geometry">
            <mxPoint x="320" y="1110" as="sourcePoint" />
            <mxPoint x="319.5" y="560" as="targetPoint" />
          </mxGeometry>
        </mxCell>
        <mxCell id="87PJ7_mTIpQ2_RzItXcB-25" value="" style="endArrow=none;html=1;rounded=0;" edge="1" parent="1" source="87PJ7_mTIpQ2_RzItXcB-35">
          <mxGeometry width="50" height="50" relative="1" as="geometry">
            <mxPoint x="499.5" y="880" as="sourcePoint" />
            <mxPoint x="499.5" y="560" as="targetPoint" />
          </mxGeometry>
        </mxCell>
        <mxCell id="87PJ7_mTIpQ2_RzItXcB-26" value="Database" style="rounded=0;whiteSpace=wrap;html=1;" vertex="1" parent="1">
          <mxGeometry x="630" y="490" width="120" height="60" as="geometry" />
        </mxCell>
        <mxCell id="87PJ7_mTIpQ2_RzItXcB-27" value="" style="endArrow=none;html=1;rounded=0;" edge="1" parent="1" source="87PJ7_mTIpQ2_RzItXcB-40">
          <mxGeometry width="50" height="50" relative="1" as="geometry">
            <mxPoint x="689.5" y="880" as="sourcePoint" />
            <mxPoint x="689.5" y="560" as="targetPoint" />
          </mxGeometry>
        </mxCell>
        <mxCell id="87PJ7_mTIpQ2_RzItXcB-29" value="" style="endArrow=classic;html=1;rounded=0;" edge="1" parent="1">
          <mxGeometry width="50" height="50" relative="1" as="geometry">
            <mxPoint x="140" y="640" as="sourcePoint" />
            <mxPoint x="320" y="640" as="targetPoint" />
          </mxGeometry>
        </mxCell>
        <mxCell id="87PJ7_mTIpQ2_RzItXcB-30" value="Request" style="text;html=1;align=center;verticalAlign=middle;resizable=0;points=[];autosize=1;strokeColor=none;fillColor=none;" vertex="1" parent="1">
          <mxGeometry x="175" y="608" width="70" height="30" as="geometry" />
        </mxCell>
        <mxCell id="87PJ7_mTIpQ2_RzItXcB-31" value="" style="endArrow=classic;html=1;rounded=0;" edge="1" parent="1" target="87PJ7_mTIpQ2_RzItXcB-35">
          <mxGeometry width="50" height="50" relative="1" as="geometry">
            <mxPoint x="320" y="680" as="sourcePoint" />
            <mxPoint x="500" y="680" as="targetPoint" />
          </mxGeometry>
        </mxCell>
        <mxCell id="87PJ7_mTIpQ2_RzItXcB-32" value="http protocol" style="text;html=1;align=center;verticalAlign=middle;whiteSpace=wrap;rounded=0;" vertex="1" parent="1">
          <mxGeometry x="370" y="650" width="70" height="30" as="geometry" />
        </mxCell>
        <mxCell id="87PJ7_mTIpQ2_RzItXcB-36" value="" style="endArrow=none;html=1;rounded=0;" edge="1" parent="1" target="87PJ7_mTIpQ2_RzItXcB-35">
          <mxGeometry width="50" height="50" relative="1" as="geometry">
            <mxPoint x="500" y="1110" as="sourcePoint" />
            <mxPoint x="499.5" y="560" as="targetPoint" />
          </mxGeometry>
        </mxCell>
        <mxCell id="87PJ7_mTIpQ2_RzItXcB-38" style="edgeStyle=orthogonalEdgeStyle;rounded=0;orthogonalLoop=1;jettySize=auto;html=1;curved=0;exitX=1;exitY=1;exitDx=0;exitDy=-5;exitPerimeter=0;entryX=0;entryY=0;entryDx=0;entryDy=5;entryPerimeter=0;" edge="1" parent="1" source="87PJ7_mTIpQ2_RzItXcB-35" target="87PJ7_mTIpQ2_RzItXcB-40">
          <mxGeometry relative="1" as="geometry">
            <mxPoint x="690" y="755" as="targetPoint" />
          </mxGeometry>
        </mxCell>
        <mxCell id="87PJ7_mTIpQ2_RzItXcB-35" value="" style="html=1;points=[[0,0,0,0,5],[0,1,0,0,-5],[1,0,0,0,5],[1,1,0,0,-5]];perimeter=orthogonalPerimeter;outlineConnect=0;targetShapes=umlLifeline;portConstraint=eastwest;newEdgeStyle={&quot;curved&quot;:0,&quot;rounded&quot;:0};" vertex="1" parent="1">
          <mxGeometry x="495" y="680" width="10" height="80" as="geometry" />
        </mxCell>
        <mxCell id="87PJ7_mTIpQ2_RzItXcB-39" value="" style="endArrow=none;html=1;rounded=0;" edge="1" parent="1" target="87PJ7_mTIpQ2_RzItXcB-40">
          <mxGeometry width="50" height="50" relative="1" as="geometry">
            <mxPoint x="690" y="1110" as="sourcePoint" />
            <mxPoint x="689.5" y="560" as="targetPoint" />
          </mxGeometry>
        </mxCell>
        <mxCell id="87PJ7_mTIpQ2_RzItXcB-41" style="edgeStyle=orthogonalEdgeStyle;rounded=0;orthogonalLoop=1;jettySize=auto;html=1;curved=0;exitX=0;exitY=1;exitDx=0;exitDy=-5;exitPerimeter=0;dashed=1;" edge="1" parent="1" source="87PJ7_mTIpQ2_RzItXcB-40">
          <mxGeometry relative="1" as="geometry">
            <mxPoint x="500" y="825" as="targetPoint" />
          </mxGeometry>
        </mxCell>
        <mxCell id="87PJ7_mTIpQ2_RzItXcB-40" value="" style="html=1;points=[[0,0,0,0,5],[0,1,0,0,-5],[1,0,0,0,5],[1,1,0,0,-5]];perimeter=orthogonalPerimeter;outlineConnect=0;targetShapes=umlLifeline;portConstraint=eastwest;newEdgeStyle={&quot;curved&quot;:0,&quot;rounded&quot;:0};" vertex="1" parent="1">
          <mxGeometry x="685" y="750" width="10" height="80" as="geometry" />
        </mxCell>
        <mxCell id="87PJ7_mTIpQ2_RzItXcB-42" value="&amp;lt;&amp;lt;Data&amp;gt;&amp;gt;" style="shape=note;whiteSpace=wrap;html=1;backgroundOutline=1;darkOpacity=0.05;rotation=0;" vertex="1" parent="1">
          <mxGeometry x="520" y="830" width="140" height="40" as="geometry" />
        </mxCell>
        <mxCell id="87PJ7_mTIpQ2_RzItXcB-44" value="" style="endArrow=classic;html=1;rounded=0;dashed=1;" edge="1" parent="1">
          <mxGeometry width="50" height="50" relative="1" as="geometry">
            <mxPoint x="500" y="850" as="sourcePoint" />
            <mxPoint x="320" y="850" as="targetPoint" />
          </mxGeometry>
        </mxCell>
        <mxCell id="87PJ7_mTIpQ2_RzItXcB-45" value="Join data" style="text;html=1;align=center;verticalAlign=middle;resizable=0;points=[];autosize=1;strokeColor=none;fillColor=none;" vertex="1" parent="1">
          <mxGeometry x="370" y="848" width="70" height="30" as="geometry" />
        </mxCell>
        <mxCell id="87PJ7_mTIpQ2_RzItXcB-47" value="" style="endArrow=classic;html=1;rounded=0;dashed=1;" edge="1" parent="1">
          <mxGeometry width="50" height="50" relative="1" as="geometry">
            <mxPoint x="320" y="880" as="sourcePoint" />
            <mxPoint x="140" y="880" as="targetPoint" />
          </mxGeometry>
        </mxCell>
        <mxCell id="87PJ7_mTIpQ2_RzItXcB-48" value="Text" style="text;html=1;align=center;verticalAlign=middle;resizable=0;points=[];autosize=1;strokeColor=none;fillColor=none;" vertex="1" parent="1">
          <mxGeometry x="325" y="68" width="50" height="30" as="geometry" />
        </mxCell>
        <mxCell id="87PJ7_mTIpQ2_RzItXcB-49" value="&lt;div&gt;&amp;nbsp; &amp;nbsp; ├── migrations&lt;/div&gt;&lt;div&gt;&amp;nbsp; &amp;nbsp; ├── scripts&lt;/div&gt;&lt;div&gt;&amp;nbsp; &amp;nbsp; │&amp;nbsp; &amp;nbsp;└── run_postgres.sh&lt;/div&gt;&lt;div&gt;&amp;nbsp; &amp;nbsp; ├── src&lt;/div&gt;&lt;div&gt;&amp;nbsp; &amp;nbsp; │&amp;nbsp; &amp;nbsp;├── api&lt;/div&gt;&lt;div&gt;&amp;nbsp; &amp;nbsp; │&amp;nbsp; &amp;nbsp;│&amp;nbsp; &amp;nbsp;├── controllers&lt;/div&gt;&lt;div&gt;&amp;nbsp; &amp;nbsp; │&amp;nbsp; &amp;nbsp;│&amp;nbsp; &amp;nbsp;│&amp;nbsp; &amp;nbsp;└── ...&amp;nbsp; # controllers for the api&lt;/div&gt;&lt;div&gt;&amp;nbsp; &amp;nbsp; │&amp;nbsp; &amp;nbsp;│&amp;nbsp; &amp;nbsp;├── schemas&lt;/div&gt;&lt;div&gt;&amp;nbsp; &amp;nbsp; │&amp;nbsp; &amp;nbsp;│&amp;nbsp; &amp;nbsp;│&amp;nbsp; &amp;nbsp;└── ...&amp;nbsp; # Marshmallow schemas&lt;/div&gt;&lt;div&gt;&amp;nbsp; &amp;nbsp; │&amp;nbsp; &amp;nbsp;│&amp;nbsp; &amp;nbsp;├── middleware.py&lt;/div&gt;&lt;div&gt;&amp;nbsp; &amp;nbsp; │&amp;nbsp; &amp;nbsp;│&amp;nbsp; &amp;nbsp;├── responses.py&lt;/div&gt;&lt;div&gt;&amp;nbsp; &amp;nbsp; │&amp;nbsp; &amp;nbsp;│&amp;nbsp; &amp;nbsp;└── requests.py&lt;/div&gt;&lt;div&gt;&amp;nbsp; &amp;nbsp; │&amp;nbsp; &amp;nbsp;├── infrastructure&lt;/div&gt;&lt;div&gt;&amp;nbsp; &amp;nbsp; │&amp;nbsp; &amp;nbsp;│&amp;nbsp; &amp;nbsp;├── services&lt;/div&gt;&lt;div&gt;&amp;nbsp; &amp;nbsp; │&amp;nbsp; &amp;nbsp;│&amp;nbsp; &amp;nbsp;│&amp;nbsp; &amp;nbsp;└── ...&amp;nbsp; # Services that use third party libraries or services (e.g. email service)&lt;/div&gt;&lt;div&gt;&amp;nbsp; &amp;nbsp; │&amp;nbsp; &amp;nbsp;│&amp;nbsp; &amp;nbsp;├── databases&lt;/div&gt;&lt;div&gt;&amp;nbsp; &amp;nbsp; │&amp;nbsp; &amp;nbsp;│&amp;nbsp; &amp;nbsp;│&amp;nbsp; &amp;nbsp;└── ...&amp;nbsp; # Database adapaters and initialization&lt;/div&gt;&lt;div&gt;&amp;nbsp; &amp;nbsp; │&amp;nbsp; &amp;nbsp;│&amp;nbsp; &amp;nbsp;├── repositories&lt;/div&gt;&lt;div&gt;&amp;nbsp; &amp;nbsp; │&amp;nbsp; &amp;nbsp;│&amp;nbsp; &amp;nbsp;│&amp;nbsp; &amp;nbsp;└── ...&amp;nbsp; # Repositories for interacting with the databases&lt;/div&gt;&lt;div&gt;&amp;nbsp; &amp;nbsp; │&amp;nbsp; &amp;nbsp;│&amp;nbsp; &amp;nbsp;└── models&lt;/div&gt;&lt;div&gt;&amp;nbsp; &amp;nbsp; │&amp;nbsp; &amp;nbsp;│&amp;nbsp; &amp;nbsp;│&amp;nbsp; &amp;nbsp;└── ...&amp;nbsp; # Database models&lt;/div&gt;&lt;div&gt;&amp;nbsp; &amp;nbsp; │&amp;nbsp; &amp;nbsp;├── domain&lt;/div&gt;&lt;div&gt;&amp;nbsp; &amp;nbsp; │&amp;nbsp; &amp;nbsp;│&amp;nbsp; &amp;nbsp;├── constants.py&lt;/div&gt;&lt;div&gt;&amp;nbsp; &amp;nbsp; │&amp;nbsp; &amp;nbsp;│&amp;nbsp; &amp;nbsp;├── exceptions.py&lt;/div&gt;&lt;div&gt;&amp;nbsp; &amp;nbsp; │&amp;nbsp; &amp;nbsp;│&amp;nbsp; &amp;nbsp;├── models&lt;/div&gt;&lt;div&gt;&amp;nbsp; &amp;nbsp; │&amp;nbsp; &amp;nbsp;│&amp;nbsp; &amp;nbsp;│&amp;nbsp; &amp;nbsp;└── ...&amp;nbsp; # Business logic models&lt;/div&gt;&lt;div&gt;&amp;nbsp; &amp;nbsp; │&amp;nbsp; &amp;nbsp;├── services&lt;/div&gt;&lt;div&gt;&amp;nbsp; &amp;nbsp; │&amp;nbsp; &amp;nbsp;│&amp;nbsp; &amp;nbsp; └── ...&amp;nbsp; # Services for interacting with the domain (business logic)&lt;/div&gt;&lt;div&gt;&amp;nbsp; &amp;nbsp; │&amp;nbsp; &amp;nbsp;├── app.py&lt;/div&gt;&lt;div&gt;&amp;nbsp; &amp;nbsp; │&amp;nbsp; &amp;nbsp;├── config.py&lt;/div&gt;&lt;div&gt;&amp;nbsp; &amp;nbsp; │&amp;nbsp; &amp;nbsp;├── cors.py&lt;/div&gt;&lt;div&gt;&amp;nbsp; &amp;nbsp; │&amp;nbsp; &amp;nbsp;├── create_app.py&lt;/div&gt;&lt;div&gt;&amp;nbsp; &amp;nbsp; │&amp;nbsp; &amp;nbsp;├── dependency_container.py&lt;/div&gt;&lt;div&gt;&amp;nbsp; &amp;nbsp; │&amp;nbsp; &amp;nbsp;├── error_handler.py&lt;/div&gt;&lt;div&gt;&amp;nbsp; &amp;nbsp; │&amp;nbsp; &amp;nbsp;└── logging.py&lt;/div&gt;" style="rounded=0;whiteSpace=wrap;html=1;align=left;" vertex="1" parent="1">
          <mxGeometry x="20" y="-430" width="680" height="550" as="geometry" />
        </mxCell>
      </root>
    </mxGraphModel>
  </diagram>
</mxfile>
